<svg width="46" height="41" viewBox="0 0 46 41" fill="none" xmlns="http://www.w3.org/2000/svg">
<path d="M33.731 10.2478C33.731 10.7156 33.5961 11.173 33.3433 11.562C33.0905 11.951 32.7312 12.2542 32.3109 12.4333C31.8906 12.6123 31.428 12.6592 30.9818 12.5679C30.5355 12.4766 30.1256 12.2513 29.8039 11.9205C29.4822 11.5896 29.2631 11.1681 29.1743 10.7093C29.0856 10.2504 29.1311 9.77477 29.3052 9.34252C29.4794 8.91027 29.7742 8.54082 30.1525 8.28089C30.5308 8.02096 30.9756 7.88222 31.4306 7.88222C32.0407 7.88222 32.6258 8.13145 33.0572 8.57507C33.4886 9.0187 33.731 9.62039 33.731 10.2478ZM23.9733 22.4501C23.8215 22.3143 23.6445 22.2113 23.453 22.1475C23.2615 22.0837 23.0595 22.0603 22.859 22.0787C22.6585 22.0971 22.4637 22.157 22.2863 22.2546C22.1088 22.3523 21.9523 22.4859 21.8263 22.6472L14.1582 32.1095C14.0261 32.2656 13.926 32.4476 13.8639 32.6445C13.8019 32.8414 13.7791 33.0492 13.797 33.2553C13.8149 33.4615 13.8731 33.6618 13.9681 33.8443C14.0631 34.0268 14.193 34.1877 14.3499 34.3173C14.5018 34.4532 14.6787 34.5561 14.8702 34.6199C15.0617 34.6837 15.2637 34.7071 15.4642 34.6887C15.6647 34.6703 15.8595 34.6105 16.037 34.5128C16.2144 34.4151 16.3709 34.2815 16.497 34.1202L24.165 24.658C24.2972 24.5018 24.3972 24.3198 24.4593 24.1229C24.5214 23.926 24.5441 23.7182 24.5262 23.5121C24.5083 23.3059 24.4501 23.1056 24.3551 22.9231C24.2601 22.7406 24.1303 22.5797 23.9733 22.4501ZM45.9999 12.6133C46.0023 12.8754 45.9403 13.1339 45.8196 13.3647C45.699 13.5956 45.5236 13.7915 45.3098 13.9341L41.3991 16.6151V20.4985C41.3889 25.9326 39.2852 31.1412 35.5485 34.9837C31.8117 38.8263 26.7466 40.9896 21.462 41H1.52501C1.23681 40.9983 0.954901 40.9132 0.711594 40.7543C0.468288 40.5955 0.273434 40.3694 0.14937 40.1019C0.0253056 39.8344 -0.0229472 39.5363 0.0101427 39.2419C0.0432325 38.9475 0.156326 38.6687 0.336458 38.4373L18.3948 15.2154V11.8248C18.3955 9.00126 19.3785 6.27111 21.166 4.12783C22.9536 1.98455 25.4278 0.569556 28.1414 0.138604C30.8551 -0.292348 33.6291 0.289175 35.9621 1.77807C38.2952 3.26696 40.0333 5.56498 40.8623 8.25677L45.3098 11.2926C45.5236 11.4352 45.699 11.631 45.8196 11.8619C45.9403 12.0928 46.0023 12.3512 45.9999 12.6133ZM41.7058 12.6133L38.6961 10.5435C38.3822 10.3333 38.1565 10.0097 38.0635 9.63667C37.5494 7.59143 36.3272 5.8094 34.6261 4.62501C32.9251 3.44062 30.8622 2.93529 28.8246 3.20386C26.7869 3.47243 24.9147 4.49643 23.5591 6.08369C22.2035 7.67095 21.4579 9.71236 21.462 11.8248V15.7674C21.4644 16.1277 21.3421 16.477 21.117 16.7531L4.70727 37.8459H21.462C25.9346 37.8407 30.2226 36.0114 33.3852 32.7592C36.5478 29.5071 38.3268 25.0977 38.3318 20.4985V15.7674C38.3295 15.5053 38.3915 15.2469 38.5122 15.016C38.6328 14.7851 38.8082 14.5893 39.022 14.4466L41.7058 12.6133Z" fill="currentColor"/>
</svg>
