<svg width="50" height="35" viewBox="0 0 50 35" fill="none" xmlns="http://www.w3.org/2000/svg">
<path fill-rule="evenodd" clip-rule="evenodd" d="M31.6559 3.94234L29.4679 11.5311L29.5374 11.5327C31.4683 11.5769 33.3809 11.9183 35.2079 12.5449C35.329 12.5864 35.45 12.6286 35.5707 12.6713C34.6687 9.62185 33.3552 6.68099 31.6559 3.94234ZM38.5097 13.8442C37.3787 9.1455 35.3486 4.64735 32.5017 0.634093C31.8391 -0.300033 30.2231 -0.241363 29.8441 1.07305L26.8461 11.471L18.5447 11.2807C16.2909 11.2291 14.25 12.1728 12.837 13.7063C12.4882 12.3025 11.2653 11.2439 9.7795 11.1418C9.46939 6.95512 7.2551 3.19429 3.75491 1.21514L3.13084 2.31883L3.75491 1.21514L3.58036 1.11644C2.97081 0.771774 2.19726 0.986506 1.85259 1.59606C1.50793 2.20561 1.72266 2.97916 2.33221 3.32383L2.50676 3.42253C5.22082 4.95717 7.03295 7.96049 7.25761 11.4275C3.40878 12.4383 0.569824 15.9413 0.569824 20.1073V20.3368C0.569824 25.2928 4.58743 29.3104 9.5434 29.3104C11.4166 29.3104 12.9353 27.7928 12.937 25.92C14.2256 27.2658 16.0094 28.1342 17.9977 28.232L16.052 32.3257H11.9723C11.272 32.3257 10.7043 32.8934 10.7043 33.5936C10.7043 34.2939 11.272 34.8615 11.9723 34.8615H16.3293C17.1949 34.8615 17.9083 34.3276 18.2443 33.6204L20.7907 28.2628L36.3154 28.3999C36.4428 28.401 36.5701 28.4007 36.6974 28.3991L36.393 32.6829C36.3116 33.8284 37.2097 34.8906 38.4243 34.8906H43.525C44.2252 34.8906 44.7929 34.3229 44.7929 33.6227C44.7929 32.9224 44.2252 32.3547 43.525 32.3547H38.9586L39.2554 28.1775C39.6198 28.1188 39.9824 28.0485 40.3429 27.9667L41.4491 27.7157C42.9312 27.3795 44.384 26.9249 45.7934 26.3565L46.5865 26.0366C48.1261 25.4156 49.1343 23.9219 49.1343 22.2617C49.1343 21.248 48.6683 20.2905 47.8706 19.665L46.8701 18.8806C44.2966 16.8629 41.4882 15.1723 38.5097 13.8442ZM36.317 15.6663C35.6805 15.4079 35.0363 15.1669 34.3852 14.9436C32.8046 14.4015 31.1499 14.1061 29.4793 14.0678L28.7413 14.0509L25.3632 25.7673L36.3378 25.8641C36.5179 25.8657 36.698 25.8641 36.8779 25.8592L36.935 25.0559C37.1586 21.9099 36.9442 18.7497 36.317 15.6663ZM39.4409 25.5669L39.4645 25.2356C39.6617 22.4611 39.5417 19.6785 39.1201 16.9414C41.3023 18.045 43.3745 19.3622 45.3054 20.8762L46.3059 21.6606C46.4906 21.8054 46.5985 22.0271 46.5985 22.2617C46.5985 22.8876 46.2184 23.4507 45.6379 23.6849L44.8449 24.0047C43.5612 24.5225 42.238 24.9365 40.8881 25.2428L39.7818 25.4937C39.6684 25.5195 39.5548 25.5439 39.4409 25.5669ZM22.7308 25.744L26.1195 13.9908L18.4866 13.8159C15.6876 13.7518 13.3839 16.0032 13.3839 18.803V20.7169C13.3839 23.4548 15.5905 25.681 18.3283 25.7052L22.7308 25.744ZM9.5434 13.6696C5.98793 13.6696 3.10565 16.5519 3.10565 20.1073V20.3368C3.10565 23.8923 5.98793 26.7745 9.5434 26.7745C10.0171 26.7745 10.4012 26.3905 10.4012 25.9168V14.5274C10.4012 14.0536 10.0171 13.6696 9.5434 13.6696Z" fill="currentColor"/>
<path fill-rule="evenodd" clip-rule="evenodd" d="M6.75344 19.5033C6.72666 19.5033 6.70496 19.525 6.70496 19.5518C6.70496 19.5786 6.72666 19.6003 6.75344 19.6003C6.78022 19.6003 6.80192 19.5786 6.80192 19.5518C6.80192 19.525 6.78022 19.5033 6.75344 19.5033ZM5.0144 19.5518C5.0144 18.5913 5.793 17.8127 6.75344 17.8127C7.71389 17.8127 8.49248 18.5913 8.49248 19.5518C8.49248 20.5122 7.71389 21.2908 6.75344 21.2908C5.793 21.2908 5.0144 20.5122 5.0144 19.5518Z" fill="currentColor"/>
</svg>
