<svg width="50" height="43" viewBox="0 0 50 43" fill="none" xmlns="http://www.w3.org/2000/svg">
<path fill-rule="evenodd" clip-rule="evenodd" d="M6.05949 1.36419C6.45925 1.93912 6.31725 2.72926 5.74232 3.12902L3.70199 4.54769C2.68054 5.25792 2.46268 6.22868 2.81195 7.19887C3.18679 8.24012 4.27811 9.37347 6.09364 9.92458C8.31396 10.5986 10.0257 12.0254 10.8326 13.7528C11.6591 15.5221 11.5049 17.5974 9.96386 19.1647L5.46341 23.7417C3.30046 25.9415 3.25538 29.2503 5.78534 32.1479L12.2906 39.5985C12.7512 40.126 12.6969 40.927 12.1694 41.3875C11.6419 41.8481 10.841 41.7938 10.3804 41.2664L3.87515 33.8158C0.649162 30.121 0.386333 25.2883 3.65525 21.9638L8.1557 17.3868C8.86197 16.6685 8.97194 15.7612 8.5351 14.826C8.07868 13.849 6.99952 12.8497 5.35707 12.3511C2.91693 11.6104 1.11878 9.98216 0.426014 8.0578C-0.292333 6.06238 0.244045 3.86348 2.25434 2.46569L4.29467 1.04701C4.86959 0.647255 5.65974 0.789258 6.05949 1.36419ZM12.4693 2.2215C13.0743 2.57418 13.2788 3.3505 12.9261 3.95545C12.4617 4.75205 12.4746 5.5292 12.8116 6.19535C13.1622 6.88856 13.9287 7.57446 15.1594 7.951L18.2664 8.90162C20.6099 9.61863 22.4817 10.9692 23.5867 12.7226C24.7033 14.4944 24.9952 16.6226 24.2353 18.7156L22.3722 23.8467C22.3713 23.8492 22.3708 23.8509 22.3706 23.8518C22.2739 24.9603 22.852 26.1296 24.2127 26.9556L36.4171 34.364C37.4374 33.7436 38.4619 33.369 39.4777 33.2089C41.1209 32.9499 42.6364 33.2688 43.9429 33.8597C46.5054 35.0187 48.3727 37.2673 49.1988 38.6732C49.5535 39.2769 49.3516 40.0539 48.7479 40.4087C48.1441 40.7634 47.3671 40.5615 47.0124 39.9578C46.3573 38.8429 44.8376 37.0475 42.8979 36.1702C41.9534 35.743 40.9391 35.5457 39.8725 35.7138C38.8247 35.879 37.6244 36.4128 36.3141 37.6104L33.6019 40.915C31.4171 43.5771 27.4475 43.3027 25.6215 40.3897C24.9289 39.2848 24.449 38.5331 23.7767 38.1491C23.2966 37.875 22.8512 37.8224 22.4016 37.9353C21.9206 38.056 21.3341 38.3941 20.6808 39.0824L19.7612 38.2095L20.6808 39.0824L20.1246 39.6684C19.6425 40.1763 18.84 40.1973 18.3321 39.7152C17.8242 39.2331 17.8033 38.4306 18.2853 37.9227L18.8416 37.3367C19.7128 36.4188 20.699 35.7482 21.7842 35.4758C22.9009 35.1955 24.0154 35.3653 25.0342 35.9471C26.2889 36.6636 27.0818 37.9375 27.655 38.8584C27.6944 38.9217 27.7328 38.9833 27.7701 39.0429C28.6843 40.5013 30.5665 40.6164 31.6417 39.3063L34.312 36.0526L22.8969 29.1234C20.8813 27.8999 19.6463 25.8838 19.8447 23.6277C19.8643 23.4047 19.9136 23.1879 19.9886 22.9812L21.1804 23.4139L19.9886 22.9812L21.8517 17.8501C22.334 16.522 22.1568 15.2099 21.4414 14.0746C20.7142 12.9208 19.391 11.8976 17.5245 11.3265L14.4174 10.3759C12.6567 9.83716 11.2675 8.76079 10.5488 7.34003C9.81637 5.89222 9.84608 4.20371 10.7354 2.67828C11.0881 2.07333 11.8644 1.86882 12.4693 2.2215ZM18.2058 18.7913C18.5838 19.3808 18.4124 20.1651 17.8229 20.5431C15.6893 21.9113 15.2887 25.1438 17.1243 27.1029L18.2993 28.357C18.7781 28.868 18.752 29.6704 18.241 30.1492C17.73 30.628 16.9276 30.6019 16.4488 30.0909L15.2738 28.8367C12.4043 25.7742 12.9256 20.6712 16.4541 18.4085C17.0435 18.0305 17.8278 18.2019 18.2058 18.7913ZM9.64221 29.0813C10.1666 28.6172 10.9679 28.666 11.432 29.1904L17.0393 35.5256C17.5034 36.0499 17.4546 36.8512 16.9302 37.3154C16.4059 37.7795 15.6046 37.7306 15.1404 37.2063L9.53312 30.8711C9.06901 30.3467 9.11785 29.5454 9.64221 29.0813Z" fill="currentColor"/>
</svg>
