<svg width="40" height="40" viewBox="0 0 40 40" fill="none" xmlns="http://www.w3.org/2000/svg">
<path fill-rule="evenodd" clip-rule="evenodd" d="M20.7464 0.248975L20 1.25841L19.2535 0.249071C19.6965 -0.082988 20.3034 -0.0830273 20.7464 0.248975ZM30.3688 29.5853C32.3765 26.9546 33.3826 23.3739 33.3826 19.1207C33.3826 14.225 30.0459 9.44766 26.9925 6.05578C25.4328 4.32317 23.8771 2.87661 22.713 1.86393C22.13 1.35681 21.6429 0.956519 21.2996 0.681505C21.1279 0.543954 20.992 0.437612 20.8978 0.364784C20.8507 0.328366 20.8141 0.300316 20.7886 0.280921L20.7588 0.258353L20.7504 0.252002L20.747 0.249418C20.7467 0.249179 20.7464 0.248975 20 1.25841C19.2535 0.249071 19.2532 0.249276 19.2529 0.249515L19.2495 0.252099L19.241 0.258451L19.2113 0.281025C19.1858 0.300424 19.1491 0.328481 19.1021 0.364908C19.0079 0.437754 18.872 0.544122 18.7003 0.681706C18.357 0.956786 17.8699 1.35717 17.2869 1.86441C16.1228 2.87732 14.5671 4.32418 13.0074 6.05708C9.95401 9.44955 6.61743 14.2275 6.61743 19.1232C6.61743 23.3753 7.62309 26.955 9.62988 29.5849L1.57374 27.4122C0.906913 27.2324 0.221524 27.6308 0.0428849 28.3021C-0.135754 28.9735 0.260005 29.6635 0.926837 29.8433L15.1695 33.6845L0.926837 37.5257C0.260005 37.7056 -0.135754 38.3956 0.0428849 39.0669C0.221524 39.7382 0.906913 40.1367 1.57374 39.9568L20.3002 34.9063C20.315 34.9026 20.3298 34.8987 20.3444 34.8944L39.0732 29.8433C39.74 29.6635 40.1358 28.9735 39.9571 28.3021C39.7785 27.6308 39.0931 27.2324 38.4263 27.4122L30.3688 29.5853ZM28.5304 27.8577C30.022 25.795 30.8826 22.8774 30.8826 19.1207C30.8826 15.2466 28.153 11.0927 25.1401 7.74591C23.6667 6.10918 22.1892 4.73452 21.0785 3.76831C20.6585 3.40295 20.2922 3.09712 20.0001 2.8588C19.708 3.09719 19.3417 3.40312 18.9216 3.7686C17.8109 4.73503 16.3334 6.11 14.86 7.74704C11.8471 11.0945 9.11739 15.249 9.11739 19.1232C9.11739 22.8826 9.97926 25.8011 11.4728 27.8636C11.5612 22.703 14.2006 18.1179 16.7613 13.6694C16.9199 13.3937 17.0783 13.1186 17.2358 12.8439C17.5516 12.2928 18.2263 12.0658 18.8078 12.3148C19.3893 12.5639 19.6947 13.2107 19.5193 13.822C19.338 14.454 19.2199 15.6263 19.2753 16.97C19.3303 18.3045 19.5505 19.6493 19.9444 20.6379C20.3643 21.6914 20.7957 21.9295 21.053 21.9526C21.409 21.9846 22.3257 21.7479 23.9177 19.9611C24.1852 19.6609 24.5794 19.508 24.9779 19.5498C25.3763 19.5916 25.7307 19.8232 25.9309 20.1725C27.5848 23.0584 28.51 25.6572 28.5304 27.8577ZM19.1385 31.7334C17.9146 31.664 16.8043 31.4452 15.8072 31.0904C15.6995 31.0427 15.5962 30.9923 15.4976 30.939C14.9884 30.6639 14.6257 30.3251 14.3827 29.9117C14.1388 29.497 13.9704 28.9304 13.9704 28.13C13.9704 24.8336 15.1978 21.7774 16.899 18.5587C17.0291 19.6062 17.2598 20.6604 17.6242 21.575C18.1374 22.8627 19.1055 24.3043 20.8306 24.4594C22.0553 24.5695 23.2925 23.9808 24.5432 22.8818C26.1293 26.0789 26.2894 28.2007 25.7482 29.4633C25.4118 30.2481 24.6945 30.9132 23.4553 31.322C22.4375 31.6016 21.3135 31.7508 20.083 31.7572C19.7571 31.7559 19.4421 31.7481 19.1385 31.7334ZM28.1687 35.8872C28.3473 35.2159 29.0327 34.8175 29.6996 34.9974L39.0732 37.5257C39.74 37.7056 40.1358 38.3956 39.9571 39.067C39.7784 39.7383 39.093 40.1367 38.4262 39.9568L29.0526 37.4284C28.3858 37.2486 27.99 36.5585 28.1687 35.8872Z" fill="currentColor"/>
</svg>
