<svg width="37" height="46" viewBox="0 0 37 46" fill="none" xmlns="http://www.w3.org/2000/svg">
<path fill-rule="evenodd" clip-rule="evenodd" d="M12.9208 0.157227C13.621 0.157227 14.1887 0.724892 14.1887 1.42514V3.79177L15.1956 4.91061L15.4852 7.0828C15.5778 7.77691 15.0901 8.41462 14.396 8.50717C13.7019 8.59971 13.0642 8.11205 12.9717 7.41795L12.7858 6.02367L11.6528 4.76486V1.42514C11.6528 0.724892 12.2205 0.157227 12.9208 0.157227ZM24.3867 0.157227C25.087 0.157227 25.6547 0.724892 25.6547 1.42514V4.76486L24.5217 6.02367L24.3358 7.41795C24.2433 8.11205 23.6056 8.59971 22.9115 8.50717C22.2174 8.41462 21.7297 7.77691 21.8222 7.0828L22.1119 4.91061L23.1188 3.79177V1.42514C23.1188 0.724892 23.6865 0.157227 24.3867 0.157227ZM4.71951 6.58873C5.26378 6.14813 6.06217 6.23217 6.50276 6.77644L8.35096 9.0595L12.1473 10.9577C12.6992 11.2336 12.9619 11.8579 12.8022 12.4309C16.659 11.6696 20.624 11.6458 24.4876 12.3594C24.3678 11.8067 24.6311 11.2222 25.1602 10.9577L28.9565 9.0595L30.8047 6.77644C31.2453 6.23217 32.0437 6.14813 32.588 6.58873C33.1322 7.02932 33.2163 7.82771 32.7757 8.37198L30.5819 11.082L26.2942 13.2258C26.2588 13.2435 26.2229 13.2595 26.1866 13.2736C26.2616 13.4555 26.295 13.6563 26.2776 13.8618C26.3623 14.0059 26.433 14.1652 26.4865 14.3398L27.1994 16.6636C27.2621 16.654 27.3263 16.6491 27.3916 16.6491H29.7663L32.9574 20.4538L35.8602 21.0759C36.5449 21.2226 36.981 21.8966 36.8343 22.5813C36.6875 23.266 36.0135 23.7021 35.3288 23.5554L31.5742 22.7509L28.5834 19.1849H27.9729L30.4698 27.324C31.2768 29.9544 31.7618 32.6729 31.9144 35.4201L32.0392 37.6666C32.1773 40.1534 31.4243 42.608 29.9154 44.5895C28.8564 45.9802 26.9015 46.3134 25.4416 45.352L23.4344 44.0301C21.2561 42.5956 19.5985 40.5653 18.6167 38.2351C17.624 40.4656 16.0058 42.4068 13.9019 43.7924L11.8947 45.1143C10.4349 46.0757 8.4799 45.7425 7.42096 44.3518C5.91208 42.3702 5.15908 39.9156 5.29719 37.4288L5.42007 35.216C5.57394 32.4453 6.06801 29.704 6.89115 27.0538L9.33525 19.1849H8.72406L5.73327 22.7509L1.97867 23.5554C1.29396 23.7021 0.619954 23.266 0.473231 22.5813C0.326508 21.8966 0.76263 21.2226 1.44734 21.0759L4.35014 20.4538L7.54123 16.6491H9.91588C9.98464 16.6491 10.0521 16.6546 10.1179 16.6651L10.8528 14.2992C10.9749 13.9059 11.1839 13.5903 11.4453 13.3528C11.2989 13.3371 11.1527 13.2955 11.0132 13.2258L6.7256 11.082L4.5318 8.37198C4.09121 7.82771 4.17525 7.02932 4.71951 6.58873ZM15.003 14.6347L18.4398 24.805C18.5304 25.073 18.6162 25.3422 18.6973 25.6128C18.7525 25.4333 18.8099 25.2543 18.8693 25.0759L22.3601 14.5957C19.9167 14.292 17.4439 14.305 15.003 14.6347ZM12.8878 16.2963L9.31286 27.806C8.55139 30.2576 8.09434 32.7935 7.952 35.3567L7.82911 37.5694C7.72446 39.4539 8.29507 41.3139 9.43847 42.8155C9.68973 43.1455 10.1536 43.2246 10.5 42.9964L12.5072 41.6745C15.5083 39.6981 17.2807 36.3161 17.198 32.7236L17.1842 32.1237C17.1332 29.9093 16.7466 27.7153 16.0375 25.6169L12.8878 16.2963ZM24.4497 16.3466L21.2752 25.8773C20.5817 27.9592 20.2034 30.1332 20.1529 32.327L20.1383 32.9614C20.0557 36.5538 21.828 39.9359 24.8291 41.9123L26.8364 43.2342C27.1827 43.4623 27.6466 43.3833 27.8979 43.0533C29.0413 41.5517 29.6119 39.6916 29.5072 37.8072L29.3825 35.5607C29.2413 33.0182 28.7923 30.5022 28.0455 28.0677L24.4497 16.3466Z" fill="currentColor"/>
<path fill-rule="evenodd" clip-rule="evenodd" d="M18.2594 5.94971H19.1003L21.1874 6.05046L21.2243 6.05441C22.5029 6.19141 23.5956 7.03652 24.0496 8.23967L25.9623 13.3085L23.5898 14.2038L21.6771 9.13496C21.5643 8.83616 21.2976 8.62366 20.9829 8.57937L19.0391 8.48554H18.3205L16.3768 8.57937C16.0621 8.62366 15.7954 8.83616 15.6826 9.13496L13.7699 14.2038L11.3973 13.3085L13.3101 8.23967C13.7641 7.03652 14.8568 6.19141 16.1354 6.05441L16.1723 6.05046L18.2594 5.94971Z" fill="currentColor"/>
</svg>
