<svg width="46" height="39" viewBox="0 0 46 39" fill="none" xmlns="http://www.w3.org/2000/svg">
<path fill-rule="evenodd" clip-rule="evenodd" d="M27.6383 0.308115C29.1101 -0.135076 30.6846 -0.0993588 32.1349 0.410121L32.2457 0.449052C34.5811 1.26945 36.3729 3.17376 37.0511 5.556L37.1216 5.80364L42.367 8.21541C45.1355 9.48829 46.5794 12.577 45.7816 15.5196C45.4005 16.9255 44.5399 18.1535 43.349 18.9911L32.8198 26.3963L38.495 35.91H42.7665C43.5827 35.91 44.2443 36.5721 44.2443 37.3889C44.2443 38.2057 43.5827 38.8679 42.7665 38.8679H38.3751C37.4089 38.8679 36.5139 38.3594 36.0187 37.5291L30.1816 27.7441C29.4452 26.5096 29.7847 24.9156 30.9601 24.0889L41.6497 16.571C42.2761 16.1305 42.7287 15.4845 42.9292 14.7451C43.3488 13.1973 42.5893 11.5727 41.1332 10.9032L34.6518 7.92319L34.2086 6.36642C33.7934 4.90804 32.6965 3.74224 31.2668 3.24L31.156 3.20107C30.296 2.89898 29.3625 2.87781 28.4898 3.14059C27.2701 3.50783 26.2756 4.39671 25.7736 5.56818L24.8438 7.73785L18.4692 10.3553C16.06 11.3445 13.8118 12.6882 11.7991 14.342L10.5949 15.3315C8.75622 16.8422 7.20256 18.6701 6.00737 20.7286C5.00507 22.4549 4.23745 24.3073 3.72481 26.2368L3.23386 28.0847C2.67471 30.1892 2.96511 32.4295 4.04235 34.3216C4.64794 35.3853 5.7772 36.0421 7.00048 36.0421H10.1841C12.899 36.0421 15.4648 34.7996 17.1495 32.669L17.8002 31.8461C18.3067 31.2056 19.2361 31.0972 19.8761 31.6041C20.5161 32.111 20.6243 33.0411 20.1179 33.6816L19.4672 34.5045C17.2219 37.344 13.8023 39 10.1841 39H7.00048C4.71526 39 2.60569 37.773 1.47437 35.7859C0.012935 33.219 -0.381029 30.1798 0.377546 27.3246L0.868489 25.4767C1.4487 23.2929 2.3175 21.1963 3.4519 19.2425C4.82426 16.8789 6.60822 14.7801 8.71941 13.0454L9.92364 12.0559C12.1637 10.2153 14.6659 8.71974 17.3474 7.61873L22.6039 5.46041L23.0573 4.40234C23.9039 2.42661 25.5813 0.927484 27.6383 0.308115ZM29.8691 7.60311C29.8682 7.60527 29.867 7.60877 29.867 7.61636C29.867 7.62395 29.8682 7.62746 29.8691 7.62962C29.8704 7.63276 29.873 7.637 29.8773 7.64126C29.8815 7.64552 29.8858 7.64809 29.8889 7.64942C29.8911 7.65033 29.8946 7.65158 29.9021 7.65158C29.9097 7.65158 29.9132 7.65033 29.9154 7.64942C29.9185 7.64809 29.9228 7.64552 29.927 7.64126C29.9313 7.637 29.9338 7.63276 29.9352 7.62962C29.9361 7.62746 29.9373 7.62395 29.9373 7.61636C29.9373 7.60878 29.9361 7.60527 29.9352 7.60311C29.9338 7.59997 29.9313 7.59573 29.927 7.59147C29.9228 7.5872 29.9185 7.58464 29.9154 7.58331C29.9132 7.5824 29.9097 7.58115 29.9021 7.58115C29.8946 7.58115 29.8911 7.5824 29.8889 7.58331C29.8858 7.58464 29.8815 7.5872 29.8773 7.59147C29.873 7.59573 29.8704 7.59997 29.8691 7.60311ZM26.9114 7.61636C26.9114 5.96332 28.2504 4.62325 29.9021 4.62325C31.5539 4.62325 32.8929 5.96331 32.8929 7.61636C32.8929 9.26941 31.5539 10.6095 29.9021 10.6095C28.2504 10.6095 26.9114 9.26941 26.9114 7.61636ZM15.4917 21.7776C17.4355 20.1818 20.0396 19.6458 22.4549 20.3443C24.9282 21.0595 26.8748 22.9822 27.6338 25.4384C28.3385 27.719 27.9468 30.2099 26.5635 32.1606L23.8112 36.0421H29.9021C30.7183 36.0421 31.3799 36.7042 31.3799 37.5211C31.3799 38.3379 30.7183 39 29.9021 39H23.4025C21.1741 39 19.8747 36.4826 21.1644 34.6638L24.1532 30.4488C25.0014 29.2526 25.2446 27.7182 24.8102 26.3123C24.3436 24.8025 23.1463 23.6231 21.6345 23.1859C20.154 22.7578 18.5577 23.0864 17.3662 24.0645L14.9532 26.0455C14.3222 26.5635 13.3911 26.4715 12.8734 25.84C12.3558 25.2085 12.4477 24.2766 13.0787 23.7586L15.4917 21.7776Z" fill="currentColor"/>
</svg>
