<svg width="31" height="38" viewBox="0 0 31 38" fill="none" xmlns="http://www.w3.org/2000/svg">
<path d="M2.38462 11.875V35.625C2.38462 36.9313 3.45769 38 4.76923 38H26.2308C27.5423 38 28.6154 36.9313 28.6154 35.625V11.875H2.38462ZM9.53846 33.25H7.15385V16.625H9.53846V33.25ZM14.3077 33.25H11.9231V16.625H14.3077V33.25ZM19.0769 33.25H16.6923V16.625H19.0769V33.25ZM23.8462 33.25H21.4615V16.625H23.8462V33.25ZM29.2115 4.75H21.4615V1.78125C21.4597 1.30941 21.2706 0.857432 20.9356 0.523789C20.6006 0.190145 20.1468 0.00187612 19.6731 0L11.3269 0C10.8532 0.00187612 10.3994 0.190145 10.0644 0.523789C9.72938 0.857432 9.54035 1.30941 9.53846 1.78125V4.75H1.78846C1.31452 4.75125 0.860348 4.93932 0.525219 5.2731C0.19009 5.60688 0.00125882 6.05922 0 6.53125V9.5H31V6.53125C30.9987 6.05922 30.8099 5.60688 30.4748 5.2731C30.1397 4.93932 29.6855 4.75125 29.2115 4.75ZM19.0769 4.75H11.9231V2.40588H19.0769V4.75Z" fill="#F4F4F5"/>
</svg>
