<svg width="41" height="41" viewBox="0 0 41 41" fill="none" xmlns="http://www.w3.org/2000/svg">
<path d="M37.9468 0H3.05319C2.24343 0 1.46684 0.321675 0.894259 0.894259C0.321675 1.46684 0 2.24343 0 3.05319V37.9468C0 38.7566 0.321675 39.5332 0.894259 40.1057C1.46684 40.6783 2.24343 41 3.05319 41H37.9468C38.7566 41 39.5332 40.6783 40.1057 40.1057C40.6783 39.5332 41 38.7566 41 37.9468V3.05319C41 2.24343 40.6783 1.46684 40.1057 0.894259C39.5332 0.321675 38.7566 0 37.9468 0ZM16.0893 25.2979C16.4363 25.2979 16.7692 25.16 17.0145 24.9146C17.2599 24.6692 17.3978 24.3364 17.3978 23.9894V2.61702H23.6022V23.9894C23.6022 24.3364 23.7401 24.6692 23.9855 24.9146C24.2308 25.16 24.5637 25.2979 24.9107 25.2979H27.0426V38.383H13.9574V25.2979H16.0893ZM2.61702 37.9468V3.05319C2.61702 2.93751 2.66297 2.82657 2.74477 2.74477C2.82657 2.66297 2.93751 2.61702 3.05319 2.61702H7.90007V23.9894C7.90007 24.3364 8.03793 24.6692 8.28333 24.9146C8.52872 25.16 8.86154 25.2979 9.20858 25.2979H11.3404V38.383H3.05319C2.93751 38.383 2.82657 38.337 2.74477 38.2552C2.66297 38.1734 2.61702 38.0625 2.61702 37.9468ZM38.383 37.9468C38.383 38.0625 38.337 38.1734 38.2552 38.2552C38.1734 38.337 38.0625 38.383 37.9468 38.383H29.6596V25.2979H31.7914C32.1385 25.2979 32.4713 25.16 32.7167 24.9146C32.9621 24.6692 33.0999 24.3364 33.0999 23.9894V2.61702H37.9468C38.0625 2.61702 38.1734 2.66297 38.2552 2.74477C38.337 2.82657 38.383 2.93751 38.383 3.05319V37.9468Z" fill="currentColor"/>
</svg>
