<svg width="44" height="44" viewBox="0 0 44 44" fill="none" xmlns="http://www.w3.org/2000/svg">
<path d="M33.8205 31.4165H10.1795C7.65217 31.4005 5.21993 30.4526 3.35044 28.7552C1.48094 27.0578 0.306166 24.7305 0.0519682 22.2209C-0.202229 19.7113 0.482097 17.1965 1.97338 15.16C3.46466 13.1235 5.65763 11.709 8.13066 11.1886C8.81105 8.02151 10.5591 5.18308 13.0831 3.14692C15.6072 1.11075 18.7545 0 22 0C25.2455 0 28.3928 1.11075 30.9169 3.14692C33.4409 5.18308 35.1889 8.02151 35.8693 11.1886C38.3424 11.709 40.5353 13.1235 42.0266 15.16C43.5179 17.1965 44.2022 19.7113 43.948 22.2209C43.6938 24.7305 42.5191 27.0578 40.6496 28.7552C38.7801 30.4526 36.3478 31.4005 33.8205 31.4165ZM22 3.10371C19.3106 3.10638 16.7149 4.08935 14.7007 5.86784C12.6865 7.64632 11.3925 10.0978 11.0621 12.7615L10.9676 14.1142H9.61215C7.73117 14.1893 5.9571 15.0071 4.68025 16.3876C3.40339 17.7681 2.72833 19.5983 2.80357 21.4755C2.87881 23.3528 3.69818 25.1233 5.08145 26.3976C6.46471 27.672 8.29855 28.3457 10.1795 28.2706H33.8205C35.7015 28.3457 37.5353 27.672 38.9186 26.3976C40.3018 25.1233 41.1212 23.3528 41.1964 21.4755C41.2717 19.5983 40.5966 17.7681 39.3198 16.3876C38.0429 15.0071 36.2688 14.1893 34.3878 14.1142H33.0324L32.8748 12.8244C32.56 10.1601 31.2813 7.70208 29.2789 5.91216C27.2764 4.12225 24.6881 3.12358 22 3.10371ZM18.8479 43.9999C18.6006 44.0028 18.3567 43.9433 18.1386 43.8269C17.7674 43.6383 17.4861 43.3107 17.3562 42.9158C17.2262 42.5208 17.2582 42.0906 17.4452 41.7191L20.5973 35.4274C20.6806 35.2277 20.8043 35.0474 20.9606 34.8975C21.117 34.7477 21.3026 34.6317 21.5059 34.5567C21.7091 34.4817 21.9257 34.4494 22.1421 34.4617C22.3585 34.4741 22.57 34.5308 22.7634 34.6284C22.9568 34.726 23.128 34.8624 23.2662 35.029C23.4044 35.1956 23.5067 35.3888 23.5667 35.5967C23.6267 35.8045 23.6431 36.0225 23.6149 36.2369C23.5867 36.4514 23.5144 36.6577 23.4027 36.8431L20.2506 43.1348C20.1196 43.3942 19.9192 43.6123 19.6716 43.765C19.424 43.9177 19.1389 43.999 18.8479 43.9999ZM28.3042 43.9999C28.057 44.0028 27.813 43.9433 27.595 43.8269C27.2238 43.6383 26.9425 43.3107 26.8126 42.9158C26.6826 42.5208 26.7146 42.0906 26.9016 41.7191L30.0537 35.4274C30.137 35.2277 30.2607 35.0474 30.417 34.8975C30.5733 34.7477 30.7589 34.6317 30.9622 34.5567C31.1655 34.4817 31.3821 34.4494 31.5985 34.4617C31.8149 34.4741 32.0264 34.5308 32.2198 34.6284C32.4132 34.726 32.5844 34.8624 32.7226 35.029C32.8608 35.1956 32.9631 35.3888 33.0231 35.5967C33.0831 35.8045 33.0995 36.0225 33.0713 36.2369C33.0431 36.4514 32.9708 36.6577 32.8591 36.8431L29.7069 43.1348C29.576 43.3942 29.3756 43.6123 29.128 43.765C28.8804 43.9177 28.5953 43.999 28.3042 43.9999ZM9.39151 43.9999C9.14426 44.0028 8.90028 43.9433 8.68228 43.8269C8.31108 43.6383 8.02976 43.3107 7.89982 42.9158C7.76988 42.5208 7.80187 42.0906 7.98881 41.7191L11.1409 35.4274C11.2242 35.2277 11.3479 35.0474 11.5043 34.8975C11.6606 34.7477 11.8462 34.6317 12.0495 34.5567C12.2528 34.4817 12.4694 34.4494 12.6857 34.4617C12.9021 34.4741 13.1136 34.5308 13.307 34.6284C13.5005 34.726 13.6716 34.8624 13.8098 35.029C13.9481 35.1956 14.0504 35.3888 14.1104 35.5967C14.1704 35.8045 14.1868 36.0225 14.1585 36.2369C14.1303 36.4514 14.0581 36.6577 13.9463 36.8431L10.7942 43.1348C10.6632 43.3942 10.4628 43.6123 10.2153 43.765C9.96767 43.9177 9.68255 43.999 9.39151 43.9999Z" fill="currentColor"/>
</svg>
