<svg width="46" height="43" viewBox="0 0 46 43" fill="none" xmlns="http://www.w3.org/2000/svg">
<path d="M20.4926 32.0151L25.5728 26.2823C25.812 26.013 26.144 25.8432 26.5029 25.8066C26.8617 25.7701 27.2213 25.8694 27.5102 26.0848C27.799 26.3003 27.9961 26.6161 28.0622 26.9697C28.1283 27.3233 28.0587 27.6887 27.8671 27.9935L27.7119 28.1999L24.788 31.5393H30.1873C30.4381 31.539 30.6846 31.6041 30.9023 31.7282C31.1201 31.8523 31.3014 32.031 31.4285 32.2466C31.5555 32.4622 31.6237 32.7072 31.6264 32.9572C31.6291 33.2073 31.5661 33.4537 31.4437 33.6719L31.3114 33.864L24.282 42.4718C24.0571 42.7471 23.7378 42.9294 23.3858 42.9833C23.0339 43.0373 22.6744 42.9591 22.3769 42.7639C22.0795 42.5687 21.8653 42.2704 21.7759 41.9268C21.6864 41.5832 21.7281 41.2187 21.8928 40.9039L22.0365 40.6861L27.203 34.4057H21.5622C21.3045 34.4062 21.0514 34.3376 20.8294 34.2071C20.6075 34.0766 20.4248 33.889 20.3004 33.6639C20.1761 33.4389 20.1148 33.1847 20.1228 32.9279C20.1308 32.6711 20.2079 32.4212 20.346 32.2043L20.4926 32.0151ZM25.8747 8.59928C32.9617 8.59928 36.981 13.111 37.5646 18.5572H37.7429C42.3027 18.5572 46 22.103 46 26.4772C46 30.8513 42.3027 34.3971 37.7429 34.3971H35.6234C34.9504 34.3971 34.4956 33.6404 34.5024 32.9674V32.9674V32.9674C34.5092 32.2871 34.9717 31.5307 35.6521 31.5307H37.8981C40.7847 31.5307 43.125 29.2977 43.125 26.5431C43.125 23.7913 40.7847 21.5584 37.8981 21.5584H36.3169C35.4831 21.5584 34.75 20.9335 34.75 20.1366C34.75 15.043 30.6185 11.4657 25.8747 11.4657C21.1309 11.4657 16.9995 15.1061 16.9995 20.1366C16.9995 20.9335 16.2692 21.5584 15.4326 21.5584H13.8513C10.9648 21.5584 8.62448 23.7913 8.62448 26.546C8.62448 29.2949 10.9648 31.5307 13.8513 31.5307H16.0973C16.7777 31.5307 17.2402 32.2871 17.2471 32.9674V32.9674V32.9674C17.2538 33.6404 16.799 34.3971 16.126 34.3971H14.0066C9.44675 34.3971 5.74944 30.8513 5.74944 26.4772C5.74944 22.103 9.44675 18.5572 14.0066 18.5572H14.1848C14.7742 13.0738 18.7878 8.59928 25.8747 8.59928ZM18.3766 9.99108e-08C21.5355 9.99108e-08 24.3898 1.35151 26.3751 3.51381C27.1993 4.4116 26.3671 5.69437 25.1493 5.74497V5.74497C24.635 5.76635 24.1417 5.54561 23.7831 5.1763C23.1732 4.54815 22.4574 4.0283 21.6663 3.64152C20.6271 3.13338 19.4853 2.86829 18.3277 2.86643C16.5199 2.87497 14.7731 3.51938 13.3952 4.68611C12.0172 5.85283 11.0964 7.46701 10.7951 9.24422L10.6888 9.84617C10.5735 10.5123 10.2258 11.1164 9.70708 11.5518C9.18836 11.9871 8.53201 12.2257 7.85397 12.2253H7.11221C4.77193 12.2253 2.8744 14.1401 2.8744 16.502C2.8744 17.5922 3.2776 18.5867 3.94137 19.3415C4.45985 19.9311 4.66337 20.8339 4.27038 21.5137V21.5137C3.87923 22.1902 2.99993 22.493 2.42493 21.9637C1.62359 21.2262 0.9878 20.3198 0.567977 19.3034C-0.0427672 17.8249 -0.164616 16.1907 0.220142 14.6384C0.6049 13.086 1.47621 11.6965 2.70741 10.6718C3.93862 9.64705 5.46554 9.04053 7.06621 8.94038L7.7016 8.92605C8.14493 6.4246 9.45794 4.15881 11.4101 2.52649C13.3623 0.894169 15.8288 -0.000345164 18.3766 9.99108e-08Z" fill="currentColor"/>
</svg>
