<svg width="42" height="40" viewBox="0 0 42 40" fill="none" xmlns="http://www.w3.org/2000/svg">
<path fill-rule="evenodd" clip-rule="evenodd" d="M8.68094 2.46119L1.39176 2.46119C0.691636 2.46119 0.124075 1.91023 0.124075 1.23059C0.124075 0.550958 0.691636 3.42295e-06 1.39176 3.32515e-06L40.6899 0C41.3901 -9.77986e-08 41.9576 0.550954 41.9576 1.23059C41.9576 1.91023 41.3901 2.46118 40.6899 2.46118L34.0346 2.46118V29.4186C34.0346 29.5042 34.0256 29.5878 34.0085 29.6685C35.7924 31.0692 38.5321 30.5511 39.5982 28.4814C39.9113 27.8736 40.6728 27.6272 41.299 27.9311C41.9252 28.235 42.179 28.9742 41.8659 29.5821C39.9278 33.345 34.7159 34.0727 31.7638 30.9927L31.2303 30.4362L31.6712 30.0379L31.2303 30.4362C30.0801 29.2362 28.9276 28.9408 27.8382 29.2397C26.9131 29.4935 26.1738 30.2199 25.1397 31.236L25.1321 31.2435C22.8582 33.4779 19.1418 33.4779 16.8679 31.2435L16.8602 31.236C15.8262 30.2199 15.0869 29.4935 14.1618 29.2397C13.0724 28.9408 11.9199 29.2362 10.7697 30.4362L10.7224 30.3934L10.7697 30.4362L10.2362 30.9927C7.28413 34.0727 2.07224 33.345 0.134111 29.5821C-0.178994 28.9742 0.0748275 28.235 0.701036 27.9311C1.32724 27.6272 2.08871 27.8736 2.40181 28.4814C3.54876 30.7082 6.63306 31.1389 8.38006 29.3162L8.69468 29.6004L8.38006 29.3162L8.68094 29.0023L8.68094 2.46119ZM11.2163 2.46119L11.2163 27.1191C12.3468 26.6341 13.5796 26.5224 14.8513 26.8712C16.4421 27.3077 17.6197 28.4731 18.4888 29.3333C18.5513 29.3952 18.6122 29.4555 18.6716 29.5138C19.9529 30.7729 22.0471 30.7729 23.3284 29.5138C23.3878 29.4555 23.4487 29.3952 23.5112 29.3334C24.3803 28.4731 25.5579 27.3077 27.1487 26.8712C28.6943 26.4473 30.1825 26.7036 31.4992 27.4834V2.46118L11.2163 2.46119ZM24.7597 7.53738C25.4598 7.53738 26.0274 8.08833 26.0274 8.76797V16.1419C26.0274 16.8215 25.4598 17.3725 24.7597 17.3725C24.0596 17.3725 23.492 16.8215 23.492 16.1419V8.76797C23.492 8.08833 24.0596 7.53738 24.7597 7.53738ZM17.0793 13.7239C17.7795 13.7239 18.347 14.2748 18.347 14.9545V22.3284C18.347 23.008 17.7795 23.559 17.0793 23.559C16.3792 23.559 15.8117 23.008 15.8117 22.3284V14.9545C15.8117 14.2748 16.3792 13.7239 17.0793 13.7239ZM14.1618 36.3204C13.0724 36.0215 11.9199 36.3169 10.7697 37.5169L9.84162 36.6786L10.7697 37.5169L10.2362 38.0734C7.28413 41.1534 2.07224 40.4257 0.134111 36.6628C-0.178994 36.0549 0.0748275 35.3158 0.701036 35.0118C1.32724 34.7079 2.08871 34.9543 2.40181 35.5621C3.54876 37.7889 6.63306 38.2196 8.38006 36.3969L9.30815 37.2352L8.38006 36.3969L8.91353 35.8404C10.5545 34.1283 12.6444 33.3465 14.8513 33.952C16.4421 34.3884 17.6197 35.5539 18.4888 36.4141C18.5513 36.4759 18.6122 36.5362 18.6716 36.5945C19.9529 37.8536 22.0471 37.8536 23.3284 36.5945C23.3878 36.5362 23.4487 36.4759 23.5112 36.4141C24.3803 35.5539 25.5579 34.3884 27.1487 33.952C29.3556 33.3465 31.4455 34.1283 33.0865 35.8404L33.6199 36.3969C35.3669 38.2196 38.4512 37.7889 39.5982 35.5621C39.9113 34.9543 40.6728 34.7079 41.299 35.0118C41.9252 35.3158 42.179 36.0549 41.8659 36.6628C39.9278 40.4257 34.7159 41.1534 31.7638 38.0734L31.2303 37.5169L32.1584 36.6786L31.2303 37.5169C30.0801 36.3169 28.9276 36.0215 27.8382 36.3204C26.9131 36.5742 26.1738 37.3006 25.1397 38.3167L25.1321 38.3242C22.8582 40.5586 19.1418 40.5586 16.8679 38.3242L16.8602 38.3167C15.8262 37.3006 15.0869 36.5742 14.1618 36.3204Z" fill="currentColor"/>
</svg>
