<svg width="45" height="40" viewBox="0 0 45 40" fill="none" xmlns="http://www.w3.org/2000/svg">
<path fill-rule="evenodd" clip-rule="evenodd" d="M13.2797 5.53173C11.9749 6.8464 10.233 8.6015 6.91072 8.6015C5.24664 8.6015 3.9455 8.19006 2.86357 7.53105C1.86338 6.92183 1.10682 6.12772 0.5133 5.50475C0.496423 5.48704 0.479679 5.46946 0.463064 5.45203C-0.184124 4.77312 -0.148581 3.70731 0.542453 3.07148C1.23349 2.43564 2.31833 2.47056 2.96552 3.14947C3.61173 3.82736 4.08793 4.31354 4.67019 4.6682C5.19916 4.9904 5.87266 5.23308 6.91072 5.23308C8.73841 5.23308 9.59274 4.42106 10.8801 3.12465C10.8981 3.10645 10.9163 3.08815 10.9345 3.06977C12.2394 1.7551 13.9813 0 17.3036 0C18.9677 0 20.2688 0.411448 21.3507 1.07045C22.3509 1.67967 23.1075 2.47378 23.701 3.09675C23.7179 3.11446 23.7346 3.13204 23.7512 3.14947C24.3974 3.82736 24.8736 4.31354 25.4559 4.6682C25.9849 4.9904 26.6584 5.23308 27.6964 5.23308C29.5241 5.23308 30.3785 4.42106 31.6658 3.12465C31.6839 3.10645 31.702 3.08815 31.7203 3.06977C33.0251 1.7551 34.767 0 38.0893 0C39.7534 0 41.0545 0.411448 42.1364 1.07045C43.1366 1.67968 43.8932 2.47378 44.4867 3.09676L44.5369 3.14947C45.1841 3.82838 45.1486 4.89419 44.4576 5.53003C43.7665 6.16586 42.6817 6.13094 42.0345 5.45203C41.3883 4.77414 40.9121 4.28796 40.3298 3.93331C39.8008 3.61111 39.1273 3.36842 38.0893 3.36842C36.2616 3.36842 35.4073 4.18044 34.1199 5.47685L34.0655 5.53173C32.7607 6.8464 31.0187 8.6015 27.6964 8.6015C26.0323 8.6015 24.7312 8.19006 23.6493 7.53105C22.6491 6.92182 21.8925 6.12771 21.299 5.50474C21.2821 5.48703 21.2654 5.46946 21.2488 5.45203C20.6026 4.77414 20.1264 4.28796 19.5441 3.93331C19.0151 3.61111 18.3416 3.36842 17.3036 3.36842C15.4759 3.36842 14.6216 4.18044 13.3342 5.47685C13.3161 5.49506 13.298 5.51335 13.2797 5.53173ZM13.2797 21.231C11.9749 22.5457 10.233 24.3008 6.91072 24.3008C5.24664 24.3008 3.9455 23.8893 2.86357 23.2303C1.86338 22.6211 1.10682 21.827 0.513301 21.204C0.496424 21.1863 0.479679 21.1687 0.463064 21.1513C-0.184124 20.4724 -0.148581 19.4066 0.542453 18.7707C1.23349 18.1349 2.31833 18.1698 2.96552 18.8487C3.61173 19.5266 4.08793 20.0128 4.67019 20.3674C5.19916 20.6896 5.87266 20.9323 6.91072 20.9323C8.73841 20.9323 9.59274 20.1203 10.8801 18.8239C10.8981 18.8057 10.9163 18.7874 10.9345 18.769C12.2394 17.4543 13.9813 15.6992 17.3036 15.6992C18.9677 15.6992 20.2688 16.1107 21.3507 16.7697C22.3509 17.3789 23.1075 18.173 23.701 18.796C23.7179 18.8137 23.7346 18.8313 23.7512 18.8487C24.3974 19.5266 24.8736 20.0128 25.4559 20.3674C25.9849 20.6896 26.6584 20.9323 27.6964 20.9323C29.5241 20.9323 30.3785 20.1203 31.6658 18.8239C31.6839 18.8057 31.702 18.7874 31.7203 18.769C33.0251 17.4543 34.767 15.6992 38.0893 15.6992C39.7534 15.6992 41.0545 16.1107 42.1364 16.7697C43.1366 17.3789 43.8932 18.173 44.4867 18.796L44.5369 18.8487C45.1841 19.5276 45.1486 20.5934 44.4576 21.2293C43.7665 21.8651 42.6817 21.8302 42.0345 21.1513C41.3883 20.4734 40.9121 19.9872 40.3298 19.6326C39.8008 19.3104 39.1273 19.0677 38.0893 19.0677C36.2616 19.0677 35.4073 19.8797 34.1199 21.1761C34.1019 21.1943 34.0837 21.2126 34.0655 21.231C32.7607 22.5456 31.0187 24.3008 27.6964 24.3008C26.0323 24.3008 24.7312 23.8893 23.6493 23.2303C22.6491 22.6211 21.8925 21.827 21.299 21.204C21.2821 21.1863 21.2654 21.1687 21.2488 21.1513C20.6026 20.4734 20.1264 19.9872 19.5441 19.6326C19.0151 19.3104 18.3416 19.0677 17.3036 19.0677C15.4759 19.0677 14.6216 19.8797 13.3342 21.1761C13.3161 21.1943 13.298 21.2126 13.2797 21.231ZM13.2798 36.9302C11.9749 38.2449 10.233 40 6.91072 40C5.24664 40 3.9455 39.5886 2.86357 38.9295C1.86338 38.3203 1.10682 37.5262 0.513301 36.9032L0.463064 36.8505C-0.184124 36.1716 -0.148581 35.1058 0.542453 34.47C1.23349 33.8341 2.31833 33.8691 2.96552 34.548C3.61173 35.2259 4.08793 35.712 4.67019 36.0667C5.19916 36.3889 5.87266 36.6316 6.91072 36.6316C8.73841 36.6316 9.59274 35.8196 10.8801 34.5231L10.9345 34.4683C12.2394 33.1536 13.9813 31.3985 17.3036 31.3985C18.9677 31.3985 20.2688 31.8099 21.3507 32.4689C22.3509 33.0782 23.1075 33.8723 23.701 34.4952C23.7179 34.513 23.7346 34.5305 23.7512 34.548C24.3974 35.2259 24.8736 35.712 25.4559 36.0667C25.9849 36.3889 26.6584 36.6316 27.6964 36.6316C29.5241 36.6316 30.3785 35.8196 31.6658 34.5231L31.7203 34.4683C33.0251 33.1536 34.767 31.3985 38.0893 31.3985C39.7534 31.3985 41.0545 31.8099 42.1364 32.4689C43.1366 33.0782 43.8932 33.8723 44.4867 34.4953L44.5369 34.548C45.1841 35.2269 45.1486 36.2927 44.4576 36.9285C43.7665 37.5644 42.6817 37.5294 42.0345 36.8505C41.3883 36.1726 40.9121 35.6865 40.3298 35.3318C39.8008 35.0096 39.1273 34.7669 38.0893 34.7669C36.2616 34.7669 35.4073 35.5789 34.1199 36.8754C34.1019 36.8935 34.0837 36.9118 34.0655 36.9302C32.7607 38.2449 31.0187 40 27.6964 40C26.0323 40 24.7312 39.5886 23.6493 38.9295C22.6491 38.3203 21.8925 37.5262 21.299 36.9032C21.2821 36.8855 21.2654 36.868 21.2488 36.8505C20.6026 36.1726 20.1264 35.6865 19.5441 35.3318C19.0151 35.0096 18.3416 34.7669 17.3036 34.7669C15.4759 34.7669 14.6216 35.5789 13.3342 36.8754L13.2798 36.9302Z" fill="currentColor"/>
</svg>
