<svg width="44" height="33" viewBox="0 0 44 33" fill="none" xmlns="http://www.w3.org/2000/svg">
<path d="M33 27.0054C32.9984 28.4125 32.4789 29.7743 31.5325 30.8528C30.586 31.9314 29.2727 32.6581 27.822 32.9061C26.3713 33.154 24.8755 32.9074 23.5959 32.2094C22.3163 31.5113 21.3343 30.4062 20.8214 29.0871C20.7372 28.8998 20.6938 28.698 20.6939 28.4942C20.6941 28.2903 20.7377 28.0886 20.8222 27.9014C20.9067 27.7142 21.0303 27.5454 21.1854 27.4053C21.3405 27.2652 21.5239 27.1567 21.7244 27.0865C21.9249 27.0164 22.1382 26.9859 22.3514 26.9971C22.5646 27.0082 22.7732 27.0608 22.9644 27.1515C23.1557 27.2422 23.3255 27.3691 23.4637 27.5246C23.6018 27.68 23.7053 27.8607 23.7679 28.0556C23.9687 28.5688 24.3127 29.0196 24.7628 29.3593C25.2129 29.699 25.7517 29.9146 26.321 29.9827C26.8903 30.0509 27.4682 29.9689 27.9922 29.7458C28.5161 29.5227 28.9661 29.1669 29.2934 28.717C29.6206 28.2671 29.8126 27.7402 29.8486 27.1935C29.8846 26.6469 29.7631 26.1012 29.4974 25.6157C29.2317 25.1303 28.8319 24.7235 28.3413 24.4396C27.8507 24.1556 27.288 24.0052 26.7143 24.0048H4.71429C4.29752 24.0048 3.89782 23.8468 3.60312 23.5654C3.30842 23.284 3.14286 22.9024 3.14286 22.5045C3.14286 22.1066 3.30842 21.725 3.60312 21.4437C3.89782 21.1623 4.29752 21.0042 4.71429 21.0042H26.7143C28.3798 21.0092 29.9756 21.643 31.1532 22.7674C32.3309 23.8918 32.9948 25.4153 33 27.0054ZM20.4286 12.0024C21.5772 12.0029 22.704 11.7028 23.6866 11.1348C24.6692 10.5669 25.47 9.75271 26.002 8.78078C26.534 7.80885 26.7769 6.71632 26.7043 5.62187C26.6317 4.52741 26.2464 3.47287 25.5902 2.57279C24.934 1.67272 24.032 0.961521 22.9822 0.516452C21.9324 0.0713834 20.7749 -0.0905391 19.6355 0.0482725C18.4961 0.187084 17.4183 0.621323 16.5193 1.30382C15.6202 1.98632 14.9341 2.89098 14.5357 3.91954C14.4515 4.10686 14.4081 4.30861 14.4082 4.51247C14.4084 4.71633 14.452 4.91803 14.5365 5.10525C14.621 5.29246 14.7446 5.46128 14.8997 5.60138C15.0548 5.74148 15.2382 5.84993 15.4387 5.92011C15.6391 5.99029 15.8525 6.02073 16.0657 6.00956C16.2789 5.9984 16.4875 5.94587 16.6787 5.85517C16.87 5.76448 17.0398 5.63753 17.178 5.48208C17.3161 5.32662 17.4196 5.14592 17.4821 4.951C17.6829 4.43789 18.027 3.98705 18.4771 3.64735C18.9272 3.30764 19.466 3.09204 20.0353 3.02391C20.6046 2.95578 21.1825 3.03772 21.7065 3.26084C22.2304 3.48397 22.6804 3.83977 23.0077 4.28968C23.3349 4.73959 23.5269 5.26643 23.5629 5.81311C23.5989 6.35978 23.4774 6.90543 23.2117 7.39089C22.946 7.87636 22.5462 8.28313 22.0556 8.56709C21.5649 8.85106 21.0023 9.0014 20.4286 9.00181H1.57143C1.15466 9.00181 0.754961 9.15988 0.460261 9.44124C0.165561 9.7226 0 10.1042 0 10.5021C0 10.9 0.165561 11.2816 0.460261 11.563C0.754961 11.8443 1.15466 12.0024 1.57143 12.0024H20.4286ZM37.7143 6.00121C36.431 6.00437 35.1792 6.38131 34.1262 7.08168C33.0733 7.78206 32.2692 8.77251 31.8214 9.92075C31.7372 10.1081 31.6938 10.3098 31.6939 10.5137C31.6941 10.7175 31.7377 10.9192 31.8222 11.1065C31.9067 11.2937 32.0303 11.4625 32.1854 11.6026C32.3405 11.7427 32.5239 11.8511 32.7244 11.9213C32.9249 11.9915 33.1382 12.0219 33.3514 12.0108C33.5646 11.9996 33.7732 11.9471 33.9644 11.8564C34.1557 11.7657 34.3255 11.6387 34.4637 11.4833C34.6018 11.3278 34.7053 11.1471 34.7679 10.9522C34.9687 10.4391 35.3127 9.98826 35.7628 9.64855C36.2129 9.30885 36.7517 9.09325 37.321 9.02512C37.8903 8.95698 38.4682 9.03892 38.9922 9.26205C39.5161 9.48518 39.9661 9.84098 40.2934 10.2909C40.6206 10.7408 40.8126 11.2676 40.8486 11.8143C40.8846 12.361 40.7631 12.9066 40.4974 13.3921C40.2317 13.8776 39.8319 14.2843 39.3413 14.5683C38.8507 14.8523 38.288 15.0026 37.7143 15.003H3.14286C2.72609 15.003 2.32639 15.1611 2.03169 15.4424C1.73699 15.7238 1.57143 16.1054 1.57143 16.5033C1.57143 16.9012 1.73699 17.2828 2.03169 17.5642C2.32639 17.8456 2.72609 18.0036 3.14286 18.0036H37.7143C39.3814 18.0036 40.9802 17.3714 42.159 16.2459C43.3378 15.1205 44 13.594 44 12.0024C44 10.4108 43.3378 8.88437 42.159 7.75892C40.9802 6.63348 39.3814 6.00121 37.7143 6.00121Z" fill="currentColor"/>
</svg>
